<svg xmlns="http://www.w3.org/2000/svg" viewBox="0 0 32 32">
  <rect width="32" height="32" rx="6" fill="#FCFCFD"/>
  <path d="M4 25 Q9 25 12 18 Q15 7 16 7 Q17 7 20 18 Q23 25 28 25 Z" fill="#1E3A4C" opacity=".18"/>
  <path d="M8 25 Q11 25 13.5 16 Q15 9 16 9 Q17 9 18.5 16 Q21 25 24 25 Z" fill="#1E3A4C" opacity=".34"/>
  <path d="M4 25 Q9 25 12 18 Q15 7 16 7 Q17 7 20 18 Q23 25 28 25" fill="none" stroke="#1E3A4C" stroke-width="1.6" stroke-linecap="round"/>
  <line x1="16" y1="7" x2="16" y2="25" stroke="#A8423A" stroke-width="1.4"/>
</svg>
